<?xml version="1.0" encoding="UTF-8" standalone="no"?>
<!DOCTYPE svg PUBLIC "-//W3C//DTD SVG 1.1//EN" "http://www.w3.org/Graphics/SVG/1.1/DTD/svg11.dtd">
<svg width="100%" height="100%" viewBox="0 0 36 36" version="1.1" xmlns="http://www.w3.org/2000/svg" xmlns:xlink="http://www.w3.org/1999/xlink" xml:space="preserve" xmlns:serif="http://www.serif.com/" style="fill-rule:evenodd;clip-rule:evenodd;stroke-linejoin:round;stroke-miterlimit:1.41421;">
    <path d="M23.55,14.46L22.55,14.46L12.19,24.84L8.81,21.42L8.08,22.15L12.19,28.38L23.55,14.46Z" style="fill:rgb(110,110,110);fill-rule:nonzero;"/>
    <path d="M19.38,21.42L19.38,29.67L6.38,29.67L6.38,16.67L18.51,16.67L20,15.17L4.88,15.17L4.88,31.17L20.88,31.17L20.88,19.49L19.38,21.42Z" style="fill:rgb(110,110,110);fill-rule:nonzero;"/>
    <path d="M27.08,26.25L22.51,26.25L22.51,28.38L26.04,28.38L27.08,26.25Z" style="fill:rgb(110,110,110);fill-rule:nonzero;"/>
    <path d="M29.1,22.11L22.51,22.11L22.51,24.24L28.06,24.24L29.1,22.11Z" style="fill:rgb(110,110,110);fill-rule:nonzero;"/>
    <path d="M31.13,17.96L22.51,17.96L22.51,20.09L30.09,20.09L31.13,17.96Z" style="fill:rgb(110,110,110);fill-rule:nonzero;"/>
    <path d="M23.24,9.5L21.45,11.29L18,7.85L14.55,11.29L12.76,9.5L18,4.26L23.24,9.5Z" style="fill:rgb(110,110,110);fill-rule:nonzero;"/>
</svg>
