<svg id="Ebene_1" data-name="Ebene 1" xmlns="http://www.w3.org/2000/svg" viewBox="0 0 36 36"><defs><style>.cls-1{fill:#010101;}</style></defs><title>Evasys-Export</title><path class="cls-1" d="M23.55,14.46h-1L12.19,24.84,8.81,21.42l-.73.73,4.11,6.23Z"/><polygon class="cls-1" points="19.38 21.42 19.38 29.67 6.38 29.67 6.38 16.67 18.51 16.67 20 15.17 4.88 15.17 4.88 31.17 20.88 31.17 20.88 19.49 19.38 21.42"/><polygon class="cls-1" points="27.08 26.25 22.51 26.25 22.51 28.38 26.04 28.38 27.08 26.25"/><polygon class="cls-1" points="29.1 22.11 22.51 22.11 22.51 24.24 28.06 24.24 29.1 22.11"/><polygon class="cls-1" points="31.13 17.96 22.51 17.96 22.51 20.09 30.09 20.09 31.13 17.96"/><polygon class="cls-1" points="23.24 9.5 21.45 11.29 18 7.85 14.55 11.29 12.76 9.5 18 4.26 23.24 9.5"/></svg>