<?xml version="1.0" encoding="UTF-8" standalone="no"?>
<!DOCTYPE svg PUBLIC "-//W3C//DTD SVG 1.1//EN" "http://www.w3.org/Graphics/SVG/1.1/DTD/svg11.dtd">
<svg width="100%" height="100%" viewBox="0 0 2000 1280" version="1.1" xmlns="http://www.w3.org/2000/svg" xmlns:xlink="http://www.w3.org/1999/xlink" xml:space="preserve" xmlns:serif="http://www.serif.com/" style="fill-rule:evenodd;clip-rule:evenodd;stroke-linejoin:round;stroke-miterlimit:2;">
    <g transform="matrix(2.89822,0,0,2.89822,26.3161,84.5648)">
        <path d="M177,0.424C141.464,5.093 108.388,14.252 79,35.884C57.84,51.46 40.082,70.394 26.604,93C-20.181,171.473 -4.215,276.486 65,336.711C86.299,355.243 111.881,368.834 139,376.573C164.877,383.957 192.465,385.292 219,381.718C251.879,377.288 283.932,363.401 310,342.985C327.04,329.64 341.722,313.278 357,298L454,201C459.533,195.467 466.067,190.11 469.622,183C476.128,169.987 470.726,153.028 458,146.328C441.718,137.755 428.276,147.724 417,159L311,265C299.005,276.995 287.509,290.032 274,300.346C250.025,318.649 217.589,331.005 187,328.91C162.12,327.207 137.988,319.973 117,306.305C79.281,281.741 54.029,237.287 54.029,192C54.029,169.32 60.925,146.971 71.259,127C79.448,111.173 91.485,97.698 105,86.275C131.293,64.051 166.69,52.74 201,55.09C221.811,56.515 253.116,74.763 267.521,50.999C275.944,37.104 271.063,18.041 256,11.184C241.584,4.623 224.584,2.389 209,0.831C198.598,-0.209 187.419,-0.944 177,0.424Z" style="fill:rgb(9,90,90);fill-rule:nonzero;"/>
    </g>
    <g transform="matrix(2.89822,0,0,2.89822,26.3161,84.5648)">
        <path d="M212,189L181,158C174.192,151.192 167.33,141.884 158,138.549C137.497,131.219 118.649,148.161 121.184,169C122.629,180.873 133.096,189.096 141,197L179,235C190.214,246.214 199.833,256.958 217,254.815C227.71,253.477 234.867,244.133 242,237L354,125C370.279,108.721 385.853,90.75 405,77.746C434.97,57.392 472.719,50.636 508,57.807C520.295,60.306 533.062,64.847 544,71.004C558.623,79.235 571.587,89.509 582.829,102C592.159,112.366 599.593,124.327 605.306,137C638.026,209.582 598.112,294.931 524,321.308C503.949,328.444 481.986,330.649 461,327.246C449.075,325.312 435.016,317.998 423,319.443C401.567,322.02 390.677,346.353 403.637,363.985C408.509,370.613 416.419,373.249 424,375.421C439.167,379.768 454.267,382.35 470,383.039C539.907,386.1 606.162,353.096 643.575,293C678.876,236.296 681.309,162.252 650.742,103C640.226,82.617 625.738,64.674 609,49.09C596.129,37.105 580.799,26.96 565,19.259C535.623,4.941 502.569,-1.387 470,0.039C431.549,1.723 393.61,16.47 363,39.475C350.229,49.074 339.262,60.738 328,72L236,164C227.989,172.011 218.53,179.73 212,189Z" style="fill:rgb(30,198,165);fill-rule:nonzero;"/>
    </g>
</svg>
